<svg width="164" height="48" viewBox="0 0 164 48" fill="none" xmlns="http://www.w3.org/2000/svg">
<path d="M23.74 24.02C23.74 28.2 26.92 31.12 30.84 31.12C33.74 31.12 36.24 29.68 37.3 26.96H34.56C33.82 28.44 32.5 29.14 30.84 29.14C28.08 29.14 26.08 27.16 26.08 24.02C26.08 20.88 28.08 18.92 30.84 18.92C32.5 18.92 33.82 19.62 34.56 21.1H37.3C36.24 18.38 33.74 16.92 30.84 16.92C26.92 16.92 23.74 19.86 23.74 24.02ZM53.4088 24.02C53.4088 19.86 50.2688 16.92 46.3088 16.92C42.3888 16.92 39.2088 19.86 39.2088 24.02C39.2088 28.2 42.3888 31.14 46.3088 31.14C50.2688 31.14 53.4088 28.2 53.4088 24.02ZM41.5488 24.02C41.5488 20.88 43.5488 18.92 46.3088 18.92C49.0688 18.92 51.0688 20.88 51.0688 24.02C51.0688 27.16 49.0688 29.16 46.3088 29.16C43.5488 29.16 41.5488 27.16 41.5488 24.02ZM54.8923 24.02C54.8923 28.2 58.0723 31.12 61.9923 31.12C64.8923 31.12 67.3923 29.68 68.4523 26.96H65.7123C64.9723 28.44 63.6523 29.14 61.9923 29.14C59.2323 29.14 57.2323 27.16 57.2323 24.02C57.2323 20.88 59.2323 18.92 61.9923 18.92C63.6523 18.92 64.9723 19.62 65.7123 21.1H68.4523C67.3923 18.38 64.8923 16.92 61.9923 16.92C58.0723 16.92 54.8923 19.86 54.8923 24.02ZM84.5611 24.02C84.5611 19.86 81.4211 16.92 77.4611 16.92C73.5411 16.92 70.3611 19.86 70.3611 24.02C70.3611 28.2 73.5411 31.14 77.4611 31.14C81.4211 31.14 84.5611 28.2 84.5611 24.02ZM72.7011 24.02C72.7011 20.88 74.7011 18.92 77.4611 18.92C80.2211 18.92 82.2211 20.88 82.2211 24.02C82.2211 27.16 80.2211 29.16 77.4611 29.16C74.7011 29.16 72.7011 27.16 72.7011 24.02ZM91.24 24.02C91.24 28.2 94.42 31.12 98.34 31.12C101.24 31.12 103.74 29.68 104.8 26.96H102.06C101.32 28.44 100 29.14 98.34 29.14C95.58 29.14 93.58 27.16 93.58 24.02C93.58 20.88 95.58 18.92 98.34 18.92C100 18.92 101.32 19.62 102.06 21.1H104.8C103.74 18.38 101.24 16.92 98.34 16.92C94.42 16.92 91.24 19.86 91.24 24.02ZM116.289 31H118.569V17.1H116.289V23.06H109.749V17.1H107.469V31H109.749V24.92H116.289V31ZM121.57 31H123.85V17.1H121.57V31ZM126.084 24.02C126.084 28.2 129.264 31.12 133.184 31.12C136.084 31.12 138.584 29.68 139.644 26.96H136.904C136.164 28.44 134.844 29.14 133.184 29.14C130.424 29.14 128.424 27.16 128.424 24.02C128.424 20.88 130.424 18.92 133.184 18.92C134.844 18.92 136.164 19.62 136.904 21.1H139.644C138.584 18.38 136.084 16.92 133.184 16.92C129.264 16.92 126.084 19.86 126.084 24.02Z" fill="#FF759D"/>
<rect x="1.5" y="1.5" width="161" height="45" stroke="#FF759D" stroke-width="3"/>
</svg>
