<svg id="Flat" height="512" viewBox="0 0 512 512" width="512" xmlns="http://www.w3.org/2000/svg"><path d="m312 72s-40 37.333-40 74.667 40 37.333 40 37.333 40 0 40-37.333-40-74.667-40-74.667z" fill="#ffe76c"/><path d="m312 224a8 8 0 0 1 -8-8v-56a8 8 0 0 1 16 0v56a8 8 0 0 1 -8 8z" fill="#f7b030"/><ellipse cx="312" cy="264" fill="#ffe76c" rx="112" ry="48"/><path d="m456 264h-288c0 52.247 40.073 95.526 96 112v32h96v-32c55.927-16.474 96-59.753 96-112z" fill="#757c80"/><path d="m456 264c0 52.25-40.07 95.53-96 112v32h-96v-32c-55.93-16.47-96-59.75-96-112z" fill="#757c80"/><path d="m24 408h464a0 0 0 0 1 0 0 32 32 0 0 1 -32 32h-400a32 32 0 0 1 -32-32 0 0 0 0 1 0 0z" fill="#4f5659"/><g fill="#ff6aa0"><path d="m120 320a60 60 0 0 0 0-96 60 60 0 0 0 0 96z"/><path d="m120 312a60 60 0 0 0 96 0 60 60 0 0 0 -96 0z"/><path d="m24 312a60 60 0 0 0 96 0 60 60 0 0 0 -96 0z"/><path d="m120 312a60 60 0 0 0 0 96 60 60 0 0 0 0-96z"/></g><path d="m122.828 318.828a60 60 0 0 0 -67.882-67.882 60 60 0 0 0 67.882 67.882z" fill="#fda2c6"/><path d="m117.172 313.172a60 60 0 0 0 67.882 67.882 60 60 0 0 0 -67.882-67.882z" fill="#fda2c6"/><path d="m122.828 313.172a60 60 0 0 0 -67.882 67.882 60 60 0 0 0 67.882-67.882z" fill="#fda2c6"/><path d="m117.172 318.828a60 60 0 0 0 67.882-67.882 60 60 0 0 0 -67.882 67.882z" fill="#fda2c6"/><circle cx="120" cy="312" fill="#ffe76c" r="24"/><path d="m336 384a8 8 0 0 1 -8 8h-64v-16h64a8 8 0 0 1 8 8z" fill="#4f5659"/></svg>